<?xml version="1.0" encoding="utf-8"?>
<!-- Svg Vector Icons : http://www.onlinewebfonts.com/icon -->
<!DOCTYPE svg PUBLIC "-//W3C//DTD SVG 1.1//EN" "http://www.w3.org/Graphics/SVG/1.1/DTD/svg11.dtd">
<svg version="1.1" xmlns="http://www.w3.org/2000/svg" xmlns:xlink="http://www.w3.org/1999/xlink" x="0px" y="0px" viewBox="0 0 1000 1000" enable-background="new 0 0 1000 1000" xml:space="preserve">
<metadata> Svg Vector Icons : http://www.onlinewebfonts.com/icon </metadata>
<g><path d="M500,31.3c63.3,0,124.7,12.4,182.4,36.8c55.8,23.6,105.9,57.4,149,100.5c43.1,43.1,76.9,93.2,100.5,149c24.4,57.8,36.8,119.2,36.8,182.4c0,63.3-12.4,124.7-36.8,182.4c-23.6,55.8-57.4,105.9-100.5,149c-43.1,43.1-93.2,76.8-149,100.5c-57.8,24.4-119.2,36.8-182.4,36.8c-63.3,0-124.7-12.4-182.4-36.8c-55.8-23.6-105.9-57.4-149-100.5c-43.1-43.1-76.9-93.2-100.5-149C43.7,624.7,31.3,563.3,31.3,500c0-63.3,12.4-124.7,36.8-182.4c23.6-55.8,57.4-105.9,100.5-149c43.1-43.1,93.2-76.9,149-100.5C375.3,43.7,436.7,31.3,500,31.3 M500,10C229.4,10,10,229.4,10,500c0,270.6,219.4,490,490,490s490-219.4,490-490C990,229.4,770.6,10,500,10L500,10z"/><path d="M783.5,483.9L349.2,750.2V220.7L783.5,483.9z"/></g>
</svg>